HIERARCHY
ROOT Hip
{
    OFFSET 0.0 0.0 0.0
    CHANNELS 6 Xposition Yposition Zposition Zrotation Xrotation Yrotation
    JOINT RightHip
    {
        OFFSET -6.504843849338226 0.0 0.0
        CHANNELS 3 Zrotation Xrotation Yrotation
        JOINT RightKnee
        {
            OFFSET 0.0 0.0 -22.91828833267448
            CHANNELS 3 Zrotation Xrotation Yrotation
            JOINT RightAnkle
            {
                OFFSET 0.0 0.0 -28.074050074747056
                CHANNELS 3 Zrotation Xrotation Yrotation
                End Site
                {
                    OFFSET 0.0 -11.229620029898822 0.0
                }
            }
        }
    }
    JOINT LeftHip
    {
        OFFSET 6.504843849338226 0.0 0.0
        CHANNELS 3 Zrotation Xrotation Yrotation
        JOINT LeftKnee
        {
            OFFSET 0.0 0.0 -22.91828833267448
            CHANNELS 3 Zrotation Xrotation Yrotation
            JOINT LeftAnkle
            {
                OFFSET 0.0 0.0 -28.074050074747056
                CHANNELS 3 Zrotation Xrotation Yrotation
                End Site
                {
                    OFFSET 0.0 -11.229620029898822 0.0
                }
            }
        }
    }
    JOINT Spine
    {
        OFFSET 0.0 0.0 18.9069506850104
        CHANNELS 3 Zrotation Xrotation Yrotation
        JOINT Thorax
        {
            OFFSET 0.0 0.0 22.188173116359266
            CHANNELS 3 Zrotation Xrotation Yrotation
            JOINT Neck
            {
                OFFSET 0.0 0.0 2.9193518515498713
                CHANNELS 3 Zrotation Xrotation Yrotation
                JOINT Head
                {
                    OFFSET 0.0 0.0 9.008971225794337
                    CHANNELS 3 Zrotation Xrotation Yrotation
                    End Site
                    {
                        OFFSET -3.603588490317735 0.0 0.0
                    }
                }
            }
            JOINT LeftShoulder
            {
                OFFSET 10.808036129924197 0.0 0.0
                CHANNELS 3 Zrotation Xrotation Yrotation
                JOINT LeftElbow
                {
                    OFFSET 21.433674900611642 0.0 0.0
                    CHANNELS 3 Zrotation Xrotation Yrotation
                    JOINT LeftWrist
                    {
                        OFFSET 12.022258419397346 0.0 0.0
                        CHANNELS 3 Zrotation Xrotation Yrotation
                        End Site
                        {
                            OFFSET 4.808903367758939 0.0 0.0
                        }
                    }
                }
            }
            JOINT RightShoulder
            {
                OFFSET -10.808036129924197 0.0 0.0
                CHANNELS 3 Zrotation Xrotation Yrotation
                JOINT RightElbow
                {
                    OFFSET -21.433674900611642 0.0 0.0
                    CHANNELS 3 Zrotation Xrotation Yrotation
                    JOINT RightWrist
                    {
                        OFFSET -12.022258419397346 0.0 0.0
                        CHANNELS 3 Zrotation Xrotation Yrotation
                        End Site
                        {
                            OFFSET -4.808903367758939 0.0 0.0
                        }
                    }
                }
            }
            JOINT Nose
            {
                OFFSET 0.0 0.0 8.692121309500168
                CHANNELS 3 Zrotation Xrotation Yrotation
                End Site
                {
                    OFFSET -3.4768485238000673 0.0 0.0
                }
            }
        }
    }
}
MOTION
Frames: 5
Frame Time: 0.03333333333333333
0.8586519010843492 44.38462970721089 8.053797105772533 -1.570049336868351 0.27240521723425676 -1.032644067958462 -2.1398536423647427 -9.063195629079871 7.864705757768918 5.561051532089408 18.582642399328847 -15.042995380264692 0.0 0.0 -1.7393658414253607e-16 -0.21320723101960148 -12.954842226375758 -11.168495951547813 -2.7078912999165516 22.564657694026767 17.01245978601711 0.0 0.0 -3.1060104311167156e-17 4.0186442009163934e-16 3.1126730798387436 -1.526826301260213e-16 -1.141833441549947 -0.013366204692297946 0.6032771347249805 1.7484383193429802 -10.629479745451041 22.329501980915367 0.0 0.0 -1.8387581752210955e-15 -91.90127539868406 -16.35166466616268 6.945871939039136 -1.4191742145136708e-14 9.555189802093838e-16 -60.83383617587472 0.0 0.0 0.0 86.42595099150167 -20.14966475564268 -6.524997620730766 -2.0638216234127963e-14 -1.2091286650147983e-15 51.94562615183788 0.0 0.0 0.0 0.0 0.0 2.4848083448933725e-17
0.860430120747586 44.46010775810216 8.037925371991465 -1.6149719391362527 0.2521346324181295 -1.1819781787766235 -2.2088613106646466 -9.124554241397092 7.868265725071813 5.652036319273865 18.57236893561104 -15.056891661443826 0.0 0.0 7.951386703658792e-16 -0.07955743210110565 -12.93990244518383 -11.036556652183265 -3.087559595584236 22.300030087320593 16.91913212058206 -4.969616689786745e-17 -1.3200769568143175e-34 3.0438902224943813e-16 1.0918829690993561e-17 3.042066615509379 -4.1120459681284887e-16 -1.2555325322743518 -0.017486271249383314 0.7047124049221385 1.9078581096629743 -10.551565902847344 20.421952491267184 0.0 0.0 -3.2550989318103172e-15 -91.98085326590025 -14.419217248799958 6.854601098160871 4.7294854516869075e-15 -4.5414382864732106e-15 -59.60350911611441 0.0 0.0 0.0 86.34103601872896 -19.96445425232245 -6.749538840179264 6.989235094973414e-16 -1.4284564915729117e-15 52.14369576447327 0.0 0.0 0.0 0.0 0.0 3.727212517340059e-17
0.8620620272852115 44.529375423533615 8.023359575281267 -1.7513657495074724 0.27652022762494 -1.3933519209245147 -2.493040856005542 -9.391354289828028 7.950478352287849 6.069605821627765 18.669358317918235 -15.734710113641944 0.0 0.0 -4.969616689786745e-17 0.5499840688450703 -12.770678408990985 -10.661243580329254 -4.6557327945583795 21.81942085904781 17.608928526510873 0.0 0.0 -1.2424041724466862e-16 3.9580465329533084e-16 3.1330856133114575 6.996194222027034e-17 -1.2182203079405636 -0.019577444994205707 0.7367055719544484 1.9187319170688666 -10.324794964253503 15.549745769666107 0.0 0.0 -6.460501696722769e-16 -92.3720819415744 -10.475968515423531 6.566977621626305 -1.0977197942580085e-14 -6.624572186815712e-15 -58.28955106484308 0.0 0.0 0.0 86.06065811761967 -19.987615610637594 -6.558563686261233 -5.719554065826168e-15 -2.7839564679084546e-15 51.908415212535665 0.0 -1.5902773407317582e-15 0.0 3.975693351829396e-16 -3.975693351829396e-16 1.3793457181406746e-33
0.8614520458037906 44.503484239081395 8.028804045323215 -1.8913899394135472 0.2828339267229703 -1.3063838496567481 -2.487571684446967 -9.629525597800919 8.25086028610164 5.257063695176998 18.89646408342332 -15.554110090214573 3.975693351829396e-16 2.586273221513765e-34 7.454425034680117e-17 0.8654400247093214 -12.269357990439342 -10.335809387210915 -5.54692476534665 21.362649094995877 17.756946054906855 9.967928041250968e-35 1.2424041724466862e-17 -9.193790876105477e-16 -3.9905842879390347e-16 3.134757266211315 4.89822025101272e-17 -1.1369630205840906 -0.013551749835182854 0.5338333572344862 1.841064898623678 -10.176581341276272 11.554578125855416 2.7479152978583753e-34 -2.4848083448933725e-17 1.26725225589562e-15 -92.10371847566252 -9.663065198331829 6.590000845776133 1.1169709224297004e-14 -6.090356734471827e-15 -57.20342873374054 0.0 0.0 0.0 85.97800403677932 -20.11605093674415 -6.3976482730485795 1.857918870911604e-14 5.394727605440009e-15 51.307434548576666 0.0 0.0 0.0 0.0 0.0 -1.2424041724466862e-17
0.8521784039211617 44.109856596537824 8.111577157208698 -2.033067294437209 0.303404805950247 -1.2396565262469639 -2.387868330129628 -9.729883123537475 8.441857494919715 4.336120256105614 19.265211565425858 -14.952061744434529 2.2629890688245443e-34 -2.4848083448933725e-17 1.0436195048552165e-15 0.6150617315973337 -11.855687683768528 -10.145493942348669 -5.645795512770756 21.360211621998943 17.473252606396137 0.0 0.0 -7.95138670365879e-16 1.1971767121235827e-15 3.0025389850471482 -1.5488202815437838e-16 -1.542340628312191 -0.011938706255708186 0.3490935885282136 2.3247416152426523 -10.114887114043158 4.31957256018553 0.0 0.0 1.4908850069360235e-16 -91.29275188147554 -8.342186146161547 6.7812349036471105 5.571327837617788e-15 -3.0698564221968214e-15 -57.710392866316745 0.0 0.0 0.0 86.68816571001629 -20.829111809665793 -6.653137229809488 2.7777983913967703e-15 -5.722547371920261e-15 51.78507012181382 0.0 0.0 0.0 0.0 0.0 3.727212517340059e-17
